REM DIRINDEX 1\2,1\3,1\4,1\5,1\6,1\7,1\8
REM DIRNAME folder01,folder02,folder03,folder04,folder05,folder06,folder07,folder08
TITLE ""
FILE "47_Ch10_AtNight_Behavier.mp3" MP3
  TRACK 01 AUDIO
    TITLE "0:"
    INDEX 01 00:00:00
  TRACK 02 AUDIO
    TITLE "8:cjc152_2576"
    INDEX 01 00:00:29
  TRACK 03 AUDIO
    TITLE "0:"
    INDEX 01 00:03:06
  TRACK 04 AUDIO
    TITLE "8:cjc152_2577"
    INDEX 01 00:03:66
  TRACK 05 AUDIO
    TITLE "0:"
    INDEX 01 00:05:26
  TRACK 06 AUDIO
    TITLE "3:cjc152_2578"
    INDEX 01 00:06:20
  TRACK 07 AUDIO
    TITLE "0:"
    INDEX 01 00:07:37
  TRACK 08 AUDIO
    TITLE "3:cjc152_2579"
    INDEX 01 00:08:28
  TRACK 09 AUDIO
    TITLE "0:"
    INDEX 01 00:09:65
  TRACK 10 AUDIO
    TITLE "3:cjc152_2580"
    INDEX 01 00:11:58
  TRACK 11 AUDIO
    TITLE "0:"
    INDEX 01 00:13:63
  TRACK 12 AUDIO
    TITLE "3:cjc152_2581"
    INDEX 01 00:14:54
  TRACK 13 AUDIO
    TITLE "0:"
    INDEX 01 00:16:65
  TRACK 14 AUDIO
    TITLE "3:cjc152_2582"
    INDEX 01 00:18:58
  TRACK 15 AUDIO
    TITLE "0:"
    INDEX 01 00:20:20
  TRACK 16 AUDIO
    TITLE "3:cjc152_2583"
    INDEX 01 00:21:11
  TRACK 17 AUDIO
    TITLE "0:"
    INDEX 01 00:22:74
  TRACK 18 AUDIO
    TITLE "3:cjc152_2584"
    INDEX 01 00:24:67
  TRACK 19 AUDIO
    TITLE "0:"
    INDEX 01 00:26:46
  TRACK 20 AUDIO
    TITLE "3:cjc152_2585"
    INDEX 01 00:27:38
  TRACK 21 AUDIO
    TITLE "0:"
    INDEX 01 00:29:27
  TRACK 22 AUDIO
    TITLE "3:cjc152_2586"
    INDEX 01 00:31:20
  TRACK 23 AUDIO
    TITLE "0:"
    INDEX 01 00:33:21
  TRACK 24 AUDIO
    TITLE "3:cjc152_2587"
    INDEX 01 00:34:10
  TRACK 25 AUDIO
    TITLE "0:"
    INDEX 01 00:35:72
  TRACK 26 AUDIO
    TITLE "3:cjc152_2588"
    INDEX 01 00:37:65
  TRACK 27 AUDIO
    TITLE "0:"
    INDEX 01 00:39:31
  TRACK 28 AUDIO
    TITLE "3:cjc152_2589"
    INDEX 01 00:40:24
  TRACK 29 AUDIO
    TITLE "0:"
    INDEX 01 00:42:25
  TRACK 30 AUDIO
    TITLE "3:cjc152_2590"
    INDEX 01 00:44:09
  TRACK 31 AUDIO
    TITLE "0:"
    INDEX 01 00:46:11
  TRACK 32 AUDIO
    TITLE "3:cjc152_2591"
    INDEX 01 00:47:05
  TRACK 33 AUDIO
    TITLE "0:"
    INDEX 01 00:49:33
  TRACK 34 AUDIO
    TITLE "3:cjc152_2592"
    INDEX 01 00:51:24
  TRACK 35 AUDIO
    TITLE "0:"
    INDEX 01 00:52:65
  TRACK 36 AUDIO
    TITLE "3:cjc152_2593"
    INDEX 01 00:53:57
  TRACK 37 AUDIO
    TITLE "0:"
    INDEX 01 00:55:73
  TRACK 38 AUDIO
    TITLE "3:cjc152_2594"
    INDEX 01 00:57:66
  TRACK 39 AUDIO
    TITLE "0:"
    INDEX 01 01:00:39
  TRACK 40 AUDIO
    TITLE "3:cjc152_2595"
    INDEX 01 01:01:33
  TRACK 41 AUDIO
    TITLE "0:"
    INDEX 01 01:04:09
  TRACK 42 AUDIO
    TITLE "3:cjc152_2596"
    INDEX 01 01:06:02
  TRACK 43 AUDIO
    TITLE "0:"
    INDEX 01 01:08:03
  TRACK 44 AUDIO
    TITLE "3:cjc152_2597"
    INDEX 01 01:08:72
  TRACK 45 AUDIO
    TITLE "0:"
    INDEX 01 01:11:09
  TRACK 46 AUDIO
    TITLE "3:cjc152_2598"
    INDEX 01 01:13:10
  TRACK 47 AUDIO
    TITLE "0:"
    INDEX 01 01:15:68
  TRACK 48 AUDIO
    TITLE "3:cjc152_2599"
    INDEX 01 01:16:61
  TRACK 49 AUDIO
    TITLE "0:"
    INDEX 01 01:19:58
  TRACK 50 AUDIO
    TITLE "3:cjc152_2600"
    INDEX 01 01:21:53
  TRACK 51 AUDIO
    TITLE "0:"
    INDEX 01 01:23:15
  TRACK 52 AUDIO
    TITLE "3:cjc152_2601"
    INDEX 01 01:24:06
  TRACK 53 AUDIO
    TITLE "0:"
    INDEX 01 01:25:72
  TRACK 54 AUDIO
    TITLE "3:cjc152_2602"
    INDEX 01 01:27:65
  TRACK 55 AUDIO
    TITLE "0:"
    INDEX 01 01:29:37
  TRACK 56 AUDIO
    TITLE "3:cjc152_2603"
    INDEX 01 01:30:30
  TRACK 57 AUDIO
    TITLE "0:"
    INDEX 01 01:32:04
  TRACK 58 AUDIO
    TITLE "3:cjc152_2604"
    INDEX 01 01:33:72
  TRACK 59 AUDIO
    TITLE "0:"
    INDEX 01 01:36:17
  TRACK 60 AUDIO
    TITLE "3:cjc152_2605"
    INDEX 01 01:37:09
  TRACK 61 AUDIO
    TITLE "0:"
    INDEX 01 01:39:02
  TRACK 62 AUDIO
    TITLE "3:cjc152_2606"
    INDEX 01 01:40:68
  TRACK 63 AUDIO
    TITLE "0:"
    INDEX 01 01:42:43
  TRACK 64 AUDIO
    TITLE "3:cjc152_2607"
    INDEX 01 01:43:37
  TRACK 65 AUDIO
    TITLE "0:"
    INDEX 01 01:46:23
  TRACK 66 AUDIO
    TITLE "3:cjc152_2608"
    INDEX 01 01:48:14
  TRACK 67 AUDIO
    TITLE "0:"
    INDEX 01 01:50:23
  TRACK 68 AUDIO
    TITLE "3:cjc152_2609"
    INDEX 01 01:51:17
  TRACK 69 AUDIO
    TITLE "0:"
    INDEX 01 01:53:61
  TRACK 70 AUDIO
    TITLE "3:cjc152_2610"
    INDEX 01 01:55:56
  TRACK 71 AUDIO
    TITLE "0:"
    INDEX 01 01:57:74
  TRACK 72 AUDIO
    TITLE "3:cjc152_2611"
    INDEX 01 01:58:66
  TRACK 73 AUDIO
    TITLE "0:"
    INDEX 01 02:00:69
  TRACK 74 AUDIO
    TITLE "3:cjc152_2612"
    INDEX 01 02:02:60
  TRACK 75 AUDIO
    TITLE "0:"
    INDEX 01 02:04:68
  TRACK 76 AUDIO
    TITLE "3:cjc152_2613"
    INDEX 01 02:05:60
  TRACK 77 AUDIO
    TITLE "0:"
    INDEX 01 02:07:69
  TRACK 78 AUDIO
    TITLE "3:cjc152_2614"
    INDEX 01 02:09:62
  TRACK 79 AUDIO
    TITLE "0:"
    INDEX 01 02:11:51
  TRACK 80 AUDIO
    TITLE "3:cjc152_2615"
    INDEX 01 02:12:46
  TRACK 81 AUDIO
    TITLE "0:"
    INDEX 01 02:14:37
  TRACK 82 AUDIO
    TITLE "3:cjc152_2616"
    INDEX 01 02:16:30
  TRACK 83 AUDIO
    TITLE "0:"
    INDEX 01 02:19:15
  TRACK 84 AUDIO
    TITLE "3:cjc152_2617"
    INDEX 01 02:20:14
  TRACK 85 AUDIO
    TITLE "0:"
    INDEX 01 02:23:44
  TRACK 86 AUDIO
    TITLE "3:cjc152_2618"
    INDEX 01 02:25:37
  TRACK 87 AUDIO
    TITLE "0:"
    INDEX 01 02:26:64
  TRACK 88 AUDIO
    TITLE "3:cjc152_2619"
    INDEX 01 02:27:56
  TRACK 89 AUDIO
    TITLE "0:"
    INDEX 01 02:30:07
  TRACK 90 AUDIO
    TITLE "3:cjc152_2620"
    INDEX 01 02:31:71
  TRACK 91 AUDIO
    TITLE "0:"
    INDEX 01 02:33:35
  TRACK 92 AUDIO
    TITLE "3:cjc152_2621"
    INDEX 01 02:34:26
  TRACK 93 AUDIO
    TITLE "0:"
    INDEX 01 02:35:73
  TRACK 94 AUDIO
    TITLE "3:cjc152_2622"
    INDEX 01 02:37:66
  TRACK 95 AUDIO
    TITLE "0:"
    INDEX 01 02:40:03
  TRACK 96 AUDIO
    TITLE "3:cjc152_2623"
    INDEX 01 02:40:72
  TRACK 97 AUDIO
    TITLE "0:"
    INDEX 01 02:44:05
  TRACK 98 AUDIO
    TITLE "3:cjc152_2624"
    INDEX 01 02:45:71
  TRACK 99 AUDIO
    TITLE "0:"
    INDEX 01 02:47:33
  TRACK 100 AUDIO
    TITLE "3:cjc152_2625"
    INDEX 01 02:48:26
  TRACK 101 AUDIO
    TITLE "0:"
    INDEX 01 02:50:23
  TRACK 102 AUDIO
    TITLE "3:cjc152_2626"
    INDEX 01 02:52:16
  TRACK 103 AUDIO
    TITLE "0:"
    INDEX 01 02:53:55
  TRACK 104 AUDIO
    TITLE "3:cjc152_2627"
    INDEX 01 02:54:53
  TRACK 105 AUDIO
    TITLE "0:"
    INDEX 01 02:56:14
  TRACK 106 AUDIO
    TITLE "3:cjc152_2628"
    INDEX 01 02:58:07
  TRACK 107 AUDIO
    TITLE "0:"
    INDEX 01 03:00:41
  TRACK 108 AUDIO
    TITLE "3:cjc152_2629"
    INDEX 01 03:01:33
  TRACK 109 AUDIO
    TITLE "0:"
    INDEX 01 03:03:50
  TRACK 110 AUDIO
    TITLE "3:cjc152_2630"
    INDEX 01 03:05:45
  TRACK 111 AUDIO
    TITLE "0:"
    INDEX 01 03:07:57
  TRACK 112 AUDIO
    TITLE "3:cjc152_2631"
    INDEX 01 03:08:51
  TRACK 113 AUDIO
    TITLE "0:"
    INDEX 01 03:12:00
  TRACK 114 AUDIO
    TITLE "3:cjc152_2632"
    INDEX 01 03:13:73
  TRACK 115 AUDIO
    TITLE "0:"
    INDEX 01 03:16:21
  TRACK 116 AUDIO
    TITLE "3:cjc152_2633"
    INDEX 01 03:17:14
  TRACK 117 AUDIO
    TITLE "0:"
    INDEX 01 03:19:62
  TRACK 118 AUDIO
    TITLE "3:cjc152_2634"
    INDEX 01 03:21:55
  TRACK 119 AUDIO
    TITLE "0:"
    INDEX 01 03:24:61
  TRACK 120 AUDIO
    TITLE "3:cjc152_2635"
    INDEX 01 03:25:55
  TRACK 121 AUDIO
    TITLE "0:"
    INDEX 01 03:28:69
  TRACK 122 AUDIO
    TITLE "3:cjc152_2636"
    INDEX 01 03:30:60
  TRACK 123 AUDIO
    TITLE "0:"
    INDEX 01 03:32:32
  TRACK 124 AUDIO
    TITLE "3:cjc152_2637"
    INDEX 01 03:33:23
  TRACK 125 AUDIO
    TITLE "0:"
    INDEX 01 03:35:12
  TRACK 126 AUDIO
    TITLE "3:cjc152_2638"
    INDEX 01 03:37:05
  TRACK 127 AUDIO
    TITLE "0:"
    INDEX 01 03:38:62
  TRACK 128 AUDIO
    TITLE "3:cjc152_2639"
    INDEX 01 03:39:53
  TRACK 129 AUDIO
    TITLE "0:"
    INDEX 01 03:41:33
  TRACK 130 AUDIO
    TITLE "3:cjc152_2640"
    INDEX 01 03:43:26
  TRACK 131 AUDIO
    TITLE "0:"
    INDEX 01 03:44:62
  TRACK 132 AUDIO
    TITLE "3:cjc152_2641"
    INDEX 01 03:45:54
  TRACK 133 AUDIO
    TITLE "0:"
    INDEX 01 03:47:37
  TRACK 134 AUDIO
    TITLE "3:cjc152_2642"
    INDEX 01 03:49:30
  TRACK 135 AUDIO
    TITLE "0:"
    INDEX 01 03:50:69
  TRACK 136 AUDIO
    TITLE "3:cjc152_2643"
    INDEX 01 03:51:60
  TRACK 137 AUDIO
    TITLE "0:"
    INDEX 01 03:53:26
